<svg width="52" height="78" viewBox="0 0 52 78" fill="none" xmlns="http://www.w3.org/2000/svg">
<path d="M27.0104 26.1714C26.8267 26.8276 26.1441 27.1951 25.4879 27.0114C24.8447 26.8276 24.4641 26.1451 24.6478 25.4888C24.8447 24.8326 25.5141 24.465 26.1704 24.6488C26.8267 24.8457 27.1942 25.5151 27.0104 26.1714Z" fill="#434343"/>
<path d="M32.8787 6.60142C33.6006 6.81143 34.2043 7.55958 33.9287 8.53087C33.4299 10.2634 31.0542 11.6941 29.7154 12.4948C29.0329 11.1429 27.786 8.62275 28.2847 6.91643C28.5866 5.87952 29.5316 5.63013 30.2142 5.82702C31.0936 6.08953 31.1986 6.83768 31.2511 7.2577C31.5136 6.91643 31.9992 6.33891 32.8787 6.60142Z" fill="#434343"/>
<path d="M18.7685 45.0593C18.0466 44.8493 17.4428 44.1012 17.7185 43.1167C18.2304 41.3842 20.593 39.9535 21.9318 39.1528C22.6143 40.5179 23.8612 43.0249 23.3624 44.7443C23.0605 45.7812 22.1155 46.0306 21.433 45.8337C20.5536 45.5712 20.4486 44.8362 20.3961 44.4162C20.1336 44.7443 19.6479 45.3087 18.7685 45.0593Z" fill="#434343"/>
<path d="M45.0594 32.8918C44.8494 33.6137 44.1012 34.2175 43.1299 33.9419C41.3974 33.4431 39.9667 31.0674 39.166 29.7286C40.5179 29.0461 43.038 27.7991 44.7444 28.2979C45.7813 28.5998 46.0307 29.5448 45.8338 30.2274C45.5713 31.1068 44.8231 31.2118 44.4162 31.2643C44.7444 31.5268 45.3088 31.9993 45.0594 32.8918Z" fill="#434343"/>
<path d="M6.60093 18.7689C6.81094 18.047 7.5591 17.4432 8.53038 17.732C10.263 18.2307 11.6936 20.6064 12.4943 21.9452C11.1424 22.6278 8.62226 23.8747 6.91595 23.3759C5.87903 23.074 5.62965 22.129 5.82653 21.4465C6.08904 20.5671 6.83719 20.4621 7.24408 20.4096C6.91595 20.1339 6.33842 19.6614 6.60093 18.7689Z" fill="#434343"/>
<path d="M44.4164 17.2198C44.7839 17.8761 44.6789 18.8343 43.7864 19.3199C42.2113 20.1862 39.5206 19.5168 37.998 19.1361C38.4837 17.6923 39.3762 15.0279 40.9382 14.1747C41.8832 13.6497 42.7364 14.1353 43.0776 14.7653C43.5239 15.566 43.0645 16.1698 42.802 16.511C43.2351 16.4717 43.9702 16.4192 44.4164 17.2198Z" fill="#434343"/>
<path d="M7.24369 34.4407C6.88931 33.7844 6.98118 32.8262 7.87372 32.3275C9.44878 31.4612 12.1395 32.1306 13.6489 32.5112C13.1633 33.955 12.2839 36.6195 10.7088 37.4727C9.76379 37.9977 8.92376 37.512 8.56937 36.882C8.1231 36.0682 8.5825 35.4776 8.84501 35.1363C8.42499 35.1757 7.67684 35.2413 7.24369 34.4407Z" fill="#434343"/>
<path d="M34.4261 44.416C33.7698 44.7704 32.8116 44.6785 32.326 43.786C31.4597 42.2109 32.1291 39.5202 32.5097 38.0107C33.9535 38.4964 36.618 39.3889 37.4712 40.9377C37.9962 41.8828 37.5106 42.7359 36.8805 43.0772C36.0668 43.5235 35.4761 43.0641 35.1348 42.8016C35.1742 43.2216 35.2398 43.9697 34.4261 44.416Z" fill="#434343"/>
<path d="M17.2199 7.24464C17.8762 6.87712 18.8343 6.98213 19.3331 7.87466C20.1994 9.44972 19.53 12.1405 19.1493 13.6499C17.7055 13.1642 15.041 12.2717 14.1879 10.7098C13.6629 9.76474 14.1485 8.9247 14.7785 8.58344C15.5792 8.13717 16.183 8.59656 16.5242 8.85907C16.4717 8.42593 16.4192 7.6909 17.2199 7.24464Z" fill="#434343"/>
<path d="M29.5832 15.6056C29.9639 15.7237 30.292 16.1175 30.1345 16.6294C29.872 17.5481 28.5988 18.3094 27.89 18.7294C27.5225 18.0075 26.8662 16.6687 27.1287 15.7631C27.2863 15.2118 27.785 15.0805 28.1525 15.1856C28.6251 15.3168 28.6776 15.7237 28.7038 15.9468C28.8482 15.7762 29.1107 15.4743 29.5832 15.6056Z" fill="#434343"/>
<path d="M22.076 36.055C21.6954 35.9369 21.3673 35.5431 21.5248 35.0312C21.7873 34.1124 23.0473 33.3512 23.7692 32.9312C24.1367 33.6531 24.793 34.9919 24.5305 35.8975C24.373 36.4488 23.8742 36.58 23.5067 36.475C23.0342 36.3307 22.9817 35.9369 22.9555 35.7138C22.7979 35.8844 22.5486 36.1863 22.076 36.055Z" fill="#434343"/>
<path d="M36.0536 29.5843C35.9354 29.965 35.5417 30.2931 35.0298 30.1356C34.111 29.8731 33.3497 28.5999 32.9297 27.8911C33.6516 27.5368 34.9904 26.8674 35.8961 27.1299C36.4473 27.2874 36.5917 27.7861 36.4736 28.1537C36.3423 28.6262 35.9354 28.6787 35.7123 28.7049C35.8829 28.8493 36.1848 29.1118 36.0536 29.5843Z" fill="#434343"/>
<path d="M15.6046 22.0765C15.7096 21.6959 16.1165 21.3678 16.6284 21.5253C17.5472 21.7878 18.3084 23.0478 18.7285 23.7697C18.0066 24.1241 16.6678 24.7935 15.7621 24.531C15.2108 24.3735 15.0796 23.8747 15.1846 23.5072C15.3158 23.0347 15.7227 22.9822 15.9459 22.9559C15.7752 22.7984 15.4733 22.549 15.6046 22.0765Z" fill="#434343"/>
<path d="M35.7134 21.2495C35.9103 21.6039 35.8578 22.1158 35.3722 22.3652C34.5321 22.8246 33.1014 22.4702 32.3008 22.2733C32.5502 21.512 33.0227 20.0945 33.8627 19.6351C34.3615 19.3595 34.8209 19.6088 35.0046 19.9501C35.2409 20.3833 34.9915 20.6983 34.8603 20.882C35.0834 20.8558 35.4772 20.8295 35.7134 21.2495Z" fill="#434343"/>
<path d="M15.9459 30.411C15.749 30.0567 15.8147 29.5448 16.2872 29.2954C17.1272 28.836 18.5579 29.1904 19.3585 29.3873C19.1092 30.1485 18.6235 31.5661 17.7966 32.0255C17.2978 32.3011 16.8384 32.0517 16.6547 31.7105C16.4184 31.2773 16.6678 30.9623 16.7991 30.7786C16.5759 30.8048 16.1822 30.8311 15.9459 30.411Z" fill="#434343"/>
<path d="M30.3974 35.7139C30.043 35.9108 29.5442 35.8583 29.2817 35.3726C28.8223 34.5326 29.1767 33.1019 29.3736 32.3013C30.1349 32.5507 31.5524 33.0363 32.0118 33.8632C32.2874 34.362 32.0249 34.8082 31.6968 34.992C31.2637 35.2283 30.9486 34.9789 30.7649 34.8476C30.8043 35.0839 30.8305 35.4776 30.3974 35.7139Z" fill="#434343"/>
<path d="M21.2481 15.9466C21.6025 15.7498 22.1012 15.8023 22.3637 16.2748C22.8231 17.1148 22.4687 18.5455 22.2719 19.3461C21.5106 19.0836 20.093 18.6111 19.6336 17.7842C19.358 17.2723 19.6074 16.826 19.9486 16.6423C20.3818 16.406 20.6968 16.6554 20.8806 16.7867C20.8543 16.5767 20.8281 16.1829 21.2481 15.9466Z" fill="#434343"/>
<path d="M25.1731 10.0004C25.7506 9.93473 26.4069 10.2891 26.4856 11.0767C26.6431 12.468 25.37 14.1874 24.6481 15.1456C23.7555 14.3712 22.128 12.9536 21.9704 11.5754C21.8786 10.7485 22.4692 10.2891 23.0205 10.2235C23.7293 10.1447 24.018 10.6566 24.1887 10.9323C24.2937 10.6304 24.4643 10.0791 25.1731 10.0004Z" fill="#434343"/>
<path d="M26.4743 41.6589C25.8968 41.7245 25.2405 41.3701 25.1618 40.5826C25.0043 39.1913 26.2775 37.4718 26.9994 36.5137C27.8919 37.2881 29.5326 38.7056 29.677 40.0838C29.7689 40.9238 29.1651 41.3701 28.6269 41.4357C27.9182 41.5145 27.6294 41.0026 27.4588 40.727C27.3538 41.0288 27.1831 41.5801 26.4743 41.6589Z" fill="#434343"/>
<path d="M41.6603 25.1866C41.7259 25.7641 41.3715 26.4204 40.584 26.5123C39.1927 26.6698 37.4732 25.3966 36.502 24.6747C37.2764 23.7822 38.6939 22.1415 40.0721 21.9971C40.899 21.9052 41.3584 22.509 41.424 23.0472C41.5028 23.7559 40.9909 24.0447 40.7152 24.2153C41.0303 24.2941 41.5815 24.4647 41.6603 25.1866Z" fill="#434343"/>
<path d="M10.0008 26.4728C9.93522 25.8953 10.2896 25.239 11.0771 25.1471C12.4684 24.9896 14.1879 26.2628 15.1592 26.9847C14.3848 27.8773 12.9672 29.5179 11.589 29.6623C10.7621 29.7542 10.3027 29.1504 10.2371 28.6123C10.1584 27.9035 10.6571 27.6147 10.9459 27.4441C10.6309 27.3654 10.0796 27.1816 10.0008 26.4728Z" fill="#434343"/>
<path d="M36.5671 14.1743C37.0134 14.5418 37.2365 15.2506 36.7377 15.8675C35.8714 16.9569 33.7451 17.2719 32.5507 17.4425C32.4719 16.2744 32.3144 14.1087 33.1807 13.0324C33.7057 12.3761 34.4539 12.4811 34.8739 12.8224C35.4252 13.2686 35.2808 13.833 35.1889 14.148C35.4908 13.9905 36.0027 13.728 36.5671 14.1743Z" fill="#434343"/>
<path d="M15.0932 37.485C14.647 37.1175 14.4238 36.4087 14.9226 35.7918C15.7889 34.7024 17.9152 34.3874 19.1096 34.2036C19.1884 35.3718 19.3459 37.5506 18.4796 38.6138C17.9546 39.2701 17.2064 39.1651 16.7733 38.8238C16.222 38.3775 16.3664 37.8131 16.4583 37.4981C16.1564 37.6556 15.6445 37.9181 15.0932 37.485Z" fill="#434343"/>
<path d="M37.4728 36.5666C37.1053 37.0129 36.3965 37.236 35.7796 36.7372C34.6902 35.8578 34.3752 33.7446 34.1914 32.5502C35.3596 32.4715 37.5253 32.3139 38.6016 33.1802C39.2579 33.7053 39.1529 34.4534 38.8116 34.8734C38.3653 35.4247 37.8009 35.2803 37.4859 35.1884C37.6565 35.4903 37.9191 36.0022 37.4728 36.5666Z" fill="#434343"/>
<path d="M14.1748 15.0932C14.5423 14.647 15.2511 14.4238 15.868 14.9226C16.9574 15.7889 17.2724 17.9152 17.443 19.1096C16.2749 19.1884 14.1092 19.3459 13.0329 18.4796C12.3766 17.9546 12.4816 17.2064 12.8229 16.7733C13.2691 16.222 13.8335 16.3664 14.1485 16.4583C13.991 16.1564 13.7285 15.6445 14.1748 15.0932Z" fill="#434343"/>
<path d="M24.7676 0.0121039C25.7126 -0.0929002 26.7758 0.484623 26.9202 1.77092C27.1696 4.02851 25.0957 6.83737 23.9144 8.42556C22.4706 7.16551 19.793 4.84229 19.5437 2.61096C19.3993 1.2459 20.3706 0.510874 21.2631 0.405869C22.4181 0.274614 22.8907 1.10152 23.1532 1.56092C23.3238 1.03589 23.6126 0.143359 24.7676 0.0121039Z" fill="#434343"/>
<path d="M26.8802 51.6479C25.9352 51.753 24.872 51.1754 24.7276 49.9023C24.4783 47.6447 26.5521 44.8358 27.7334 43.2607C29.1772 44.5077 31.8548 46.844 32.1042 49.0753C32.2486 50.4404 31.2773 51.1754 30.3847 51.2804C29.2297 51.4117 28.7572 50.5848 28.4815 50.1254C28.324 50.6242 28.0353 51.5167 26.8802 51.6479Z" fill="#434343"/>
<path d="M51.6484 24.7666C51.7534 25.7117 51.1759 26.7748 49.8896 26.9192C47.632 27.1686 44.8231 25.0948 43.248 23.9135C44.5081 22.4697 46.8313 19.7921 49.0626 19.5427C50.4146 19.3983 51.1627 20.3696 51.2677 21.2621C51.399 22.4172 50.5721 22.8897 50.1127 23.1653C50.6246 23.3228 51.5171 23.6116 51.6484 24.7666Z" fill="#434343"/>
<path d="M0.0121099 26.8934C-0.0928942 25.9484 0.484628 24.8721 1.7578 24.7408C4.01539 24.4914 6.82425 26.5653 8.41244 27.7466C7.15239 29.1904 4.82917 31.868 2.59784 32.1174C1.24591 32.2617 0.497754 31.2905 0.39275 30.3979C0.27462 29.2429 1.0884 28.7704 1.5478 28.4947C1.0359 28.3241 0.13024 28.0353 0.0121099 26.8934Z" fill="#434343"/>
<path d="M43.339 6.824C44.0741 7.41465 44.4285 8.58282 43.6278 9.58036C42.1971 11.3523 38.7451 11.8773 36.8025 12.153C36.6713 10.2498 36.4219 6.70587 37.8263 4.96018C38.6795 3.89701 39.9002 4.05452 40.5958 4.61891C41.5015 5.34082 41.2521 6.2596 41.1208 6.78463C41.5934 6.53524 42.4334 6.1021 43.339 6.824Z" fill="#434343"/>
<path d="M8.32098 44.8358C7.58595 44.2451 7.23156 43.077 8.04534 42.0794C9.4629 40.3075 12.928 39.7825 14.8706 39.5068C15.0019 41.4232 15.2513 44.9539 13.8468 46.6996C12.9937 47.7628 11.773 47.6053 11.0773 47.0409C10.1717 46.319 10.4211 45.4002 10.5523 44.8752C10.0667 45.1246 9.22664 45.5577 8.32098 44.8358Z" fill="#434343"/>
<path d="M44.8362 43.3395C44.2456 44.0746 43.0774 44.429 42.0799 43.6283C40.3079 42.1976 39.7829 38.7456 39.4941 36.803C41.4105 36.6718 44.9412 36.4224 46.6869 37.8268C47.7501 38.68 47.5926 39.9006 47.0282 40.5963C46.3063 41.502 45.3875 41.2526 44.8625 41.1213C45.125 41.5938 45.5581 42.4339 44.8362 43.3395Z" fill="#434343"/>
<path d="M6.82449 8.32037C7.41514 7.58534 8.58331 7.23096 9.58085 8.03161C11.3528 9.44917 11.8778 12.9143 12.1535 14.8569C10.2371 14.9881 6.70636 15.2375 4.96067 13.8331C3.8975 12.9799 4.05501 11.7593 4.6194 11.0636C5.34131 10.1579 6.26009 10.4073 6.77199 10.5386C6.53573 10.0661 6.10259 9.22603 6.82449 8.32037Z" fill="#434343"/>
<path d="M25.5805 19.8053C25.8036 19.779 26.053 19.9234 26.0793 20.2122C26.1318 20.7372 25.6461 21.3935 25.3836 21.761C25.0423 21.4722 24.4254 20.921 24.3598 20.4091C24.3204 20.094 24.5567 19.9234 24.7536 19.8972C25.0292 19.8709 25.1342 20.0547 25.1998 20.1597C25.2392 20.0547 25.318 19.8447 25.5805 19.8053Z" fill="#434343"/>
<path d="M26.0789 31.8414C25.8557 31.8677 25.6064 31.7364 25.5801 31.4346C25.5276 30.9095 26.0132 30.2533 26.2758 29.8857C26.617 30.1745 27.2339 30.7127 27.2996 31.2377C27.3389 31.5527 27.1027 31.7233 26.8927 31.7496C26.6301 31.7758 26.512 31.5921 26.4595 31.4739C26.407 31.6052 26.3414 31.8152 26.0789 31.8414Z" fill="#434343"/>
<path d="M31.8424 25.5805C31.8687 25.8036 31.7374 26.053 31.4355 26.0792C30.9105 26.1317 30.2542 25.6592 29.8867 25.3836C30.1755 25.0423 30.7136 24.4254 31.2386 24.3598C31.5537 24.3204 31.7243 24.5567 31.7505 24.7667C31.7768 25.0292 31.593 25.1473 31.4749 25.213C31.6062 25.2392 31.8162 25.318 31.8424 25.5805Z" fill="#434343"/>
<path d="M19.8058 26.0794C19.7795 25.8562 19.9239 25.6068 20.2127 25.5806C20.7377 25.5281 21.394 26.0137 21.7615 26.2762C21.4727 26.6175 20.9214 27.2344 20.4095 27.3C20.0945 27.3394 19.9239 27.1032 19.8977 26.9063C19.8714 26.6438 20.0552 26.5256 20.1602 26.46C20.0552 26.4075 19.8452 26.3419 19.8058 26.0794Z" fill="#434343"/>
<path d="M29.9132 21.3935C30.0838 21.5379 30.1626 21.8004 29.9788 22.0366C29.6507 22.4435 28.8369 22.5748 28.3907 22.6404C28.3644 22.1941 28.2988 21.3672 28.6269 20.9603C28.8238 20.7109 29.1126 20.7503 29.2701 20.8816C29.4801 21.0522 29.4276 21.2622 29.3882 21.3803C29.5063 21.3278 29.7032 21.236 29.9132 21.3935Z" fill="#434343"/>
<path d="M21.7492 30.2533C21.5785 30.1089 21.4998 29.8464 21.6836 29.6101C22.0117 29.2032 22.8255 29.072 23.2717 29.0063C23.298 29.4526 23.3636 30.2795 23.0355 30.6864C22.8386 30.9358 22.5498 30.8964 22.3923 30.7652C22.1823 30.5945 22.2348 30.3845 22.2742 30.2664C22.1561 30.332 21.9592 30.4239 21.7492 30.2533Z" fill="#434343"/>
<path d="M30.2528 29.9117C30.1084 30.0824 29.8459 30.1611 29.6096 29.9774C29.1896 29.6492 29.0715 28.8355 29.0059 28.3892C29.4521 28.3629 30.279 28.2973 30.6859 28.6254C30.9353 28.8223 30.8959 29.1111 30.7647 29.2686C30.594 29.4786 30.384 29.4261 30.2659 29.3867C30.3184 29.5049 30.4234 29.7017 30.2528 29.9117Z" fill="#434343"/>
<path d="M21.393 21.7477C21.5374 21.5771 21.7999 21.4983 22.0361 21.6821C22.4562 22.0102 22.5743 22.824 22.6399 23.2703C22.1936 23.3097 21.3667 23.3622 20.9598 23.034C20.7105 22.8371 20.7498 22.5484 20.8811 22.3909C21.0517 22.1809 21.2617 22.2334 21.3799 22.2727C21.3274 22.1546 21.2224 21.9577 21.393 21.7477Z" fill="#434343"/>
<path d="M11.0237 70.5614H10.5381L9.12052 68.225C8.81863 67.7263 8.543 67.2275 8.31986 66.7418H8.29361C8.33299 67.3062 8.34611 67.8313 8.34611 68.5925V70.5482H7.88672V66.1118H8.39861L9.8293 68.4482C10.1443 68.9732 10.4068 69.4457 10.6037 69.9051H10.6168C10.5643 69.2882 10.5643 68.7632 10.5643 68.0544V66.1249H11.0237V70.5614Z" fill="#434343"/>
<path d="M16.6412 70.5614H16.1293L15.6568 69.1176H14.108L13.6355 70.5614H13.1367L14.6068 66.125H15.1712L16.6412 70.5614ZM15.5518 68.737L15.1187 67.4244C15.0268 67.1225 14.948 66.8469 14.8955 66.5844H14.8824C14.8299 66.8469 14.738 67.1357 14.6593 67.4113L14.213 68.7501H15.5518V68.737Z" fill="#434343"/>
<path d="M21.9185 70.391C21.6822 70.4829 21.2097 70.6142 20.6584 70.6142C18.9127 70.6142 18.5059 69.3148 18.5059 68.3697C18.5059 67.0178 19.3853 66.0728 20.7766 66.0728C21.1966 66.0728 21.5772 66.1515 21.8004 66.2565L21.6691 66.6634C21.4591 66.5584 21.1703 66.4796 20.7634 66.4796C19.7134 66.4796 19.0046 67.1622 19.0046 68.3303C19.0046 69.5248 19.674 70.2073 20.6847 70.2073C21.0522 70.2073 21.3147 70.1548 21.4329 70.076V68.6585H20.5403V68.2647H21.9185V70.391Z" fill="#434343"/>
<path d="M27.4049 70.5614H26.893L26.4205 69.1176H24.8717L24.3992 70.5614H23.9004L25.3704 66.125H25.9348L27.4049 70.5614ZM26.3155 68.737L25.8823 67.4244C25.7905 67.1225 25.7117 66.8469 25.6592 66.5844H25.6461C25.5936 66.8469 25.5017 67.1357 25.4229 67.4113L24.9767 68.7501H26.3155V68.737Z" fill="#434343"/>
<path d="M33.0486 68.304C33.0486 69.866 32.1692 70.6404 31.1191 70.6404C30.0166 70.6404 29.2422 69.7741 29.2422 68.3828C29.2422 66.939 30.0691 66.0596 31.1716 66.0596C32.3136 66.0596 33.0486 66.9652 33.0486 68.304ZM29.7541 68.3697C29.7541 69.3147 30.2397 70.2335 31.1454 70.2335C32.0642 70.2335 32.5498 69.3409 32.5498 68.3303C32.5498 67.4377 32.1167 66.4533 31.1585 66.4533C30.1741 66.4533 29.7541 67.4246 29.7541 68.3697Z" fill="#434343"/>
<path d="M38.1667 70.5614H37.5892L36.1322 68.3301L35.7122 68.8157V70.5614H35.2266V66.125H35.7122V68.2907H35.7385C35.8435 68.1201 35.9747 67.9626 36.0797 67.8182L37.4317 66.125H38.0223L36.4604 68.0151L38.1667 70.5614Z" fill="#434343"/>
<path d="M43.2467 70.5614H42.7348L42.2623 69.1176H40.7135L40.241 70.5614H39.7422L41.2122 66.125H41.7766L43.2467 70.5614ZM42.1573 68.737L41.7241 67.4244C41.6323 67.1225 41.5535 66.8469 41.501 66.5844H41.4748C41.4223 66.8469 41.3304 67.1357 41.2516 67.4113L40.8054 68.7501H42.1573V68.737Z" fill="#434343"/>
<path d="M11.0761 76.9799H10.5905V74.8535H8.46416V76.9799H7.97852V72.5435H8.46416V74.4335H10.5905V72.5435H11.0761V76.9799Z" fill="#434343"/>
<path d="M18.2428 76.9799H17.7309L17.2584 75.5361H15.7096L15.2371 76.9799H14.7383L16.2083 72.5435H16.7727L18.2428 76.9799ZM17.1534 75.1554L16.7202 73.8429C16.6284 73.541 16.5496 73.2654 16.4971 73.0029H16.484C16.4315 73.2654 16.3396 73.5541 16.2608 73.8298L15.8146 75.1686H17.1534V75.1554Z" fill="#434343"/>
<path d="M25.0159 76.9798H24.5303L23.1127 74.6435C22.8108 74.1447 22.5352 73.6459 22.312 73.1603H22.2858C22.3252 73.7247 22.3383 74.2497 22.3383 75.011V76.9667H21.8789V72.5303H22.3908L23.8215 74.8666C24.1365 75.3916 24.399 75.8642 24.5959 76.3236H24.609C24.5565 75.7067 24.5565 75.1816 24.5565 74.4729V72.5434H25.0159V76.9798V76.9798Z" fill="#434343"/>
<path d="M32.1822 76.9799H31.6704L31.1978 75.5361H29.649L29.1765 76.9799H28.6777L30.1478 72.5435H30.7122L32.1822 76.9799ZM31.0928 75.1554L30.6597 73.8429C30.5678 73.541 30.4891 73.2654 30.4366 73.0029H30.4234C30.3709 73.2654 30.279 73.5541 30.2003 73.8298L29.754 75.1686H31.0928V75.1554Z" fill="#434343"/>
<path d="M37.5364 74.6045C37.9564 74.7095 38.4552 75.0507 38.4552 75.7201C38.4552 76.1139 38.2977 76.4027 38.1008 76.5995C37.7989 76.8883 37.3264 77.0196 36.657 77.0196C36.2895 77.0196 36.0138 76.9933 35.8301 76.9671V72.5963C36.0795 72.5438 36.4207 72.5044 36.7882 72.5044C37.3395 72.5044 37.6939 72.6094 37.9564 72.8325C38.1664 73.0163 38.2846 73.2657 38.2846 73.6069C38.2846 74.0401 37.9827 74.4207 37.5364 74.5913V74.6045ZM36.8276 74.447C37.4183 74.447 37.7989 74.1057 37.7989 73.6594C37.7989 73.1344 37.4183 72.9113 36.8145 72.9113C36.552 72.9113 36.4076 72.9244 36.3157 72.9507V74.4601H36.8276V74.447ZM36.3026 76.5995C36.4076 76.6258 36.5651 76.6258 36.7751 76.6258C37.392 76.6258 37.9302 76.3895 37.9302 75.7201C37.9302 75.0507 37.3526 74.8145 36.762 74.8145H36.2895V76.5995H36.3026Z" fill="#434343"/>
<path d="M42.209 72.5435H42.6946V76.9799H42.209V72.5435Z" fill="#434343"/>
<path d="M39.4542 57.4755L37.9841 57.3442L36.094 56.491L33.5214 54.4303C33.4952 54.4172 33.4558 54.4172 33.4427 54.4303L30.8307 56.4648L28.9669 57.3048L27.4706 57.423L23.7954 57.3836L22.3122 57.2523L20.3828 56.3992L17.8102 54.3385C17.7839 54.3253 17.7446 54.3253 17.7314 54.3385L15.1195 56.3729L13.2556 57.2261L11.7462 57.3442L9.12109 57.318C9.21297 57.4886 9.30485 57.6461 9.40985 57.8167H9.86925V58.5386C9.96113 58.683 10.0661 58.8405 10.1711 58.9849V57.8298H11.4443L10.4074 59.3262C10.4993 59.4574 10.5912 59.5755 10.6962 59.7068L11.6018 58.3549V60.0874H10.998C11.1293 60.2449 11.2606 60.3893 11.3918 60.5468L39.7429 60.5993C39.8479 60.4812 39.9529 60.3499 40.0579 60.2318H39.6117V58.4992L40.4517 59.7462C40.5436 59.6149 40.6486 59.4968 40.7405 59.3655L39.7954 57.948H41.0686V58.9061C41.1736 58.7618 41.2655 58.6043 41.3705 58.4599V57.948H41.6855C41.7905 57.7773 41.8824 57.6198 41.9743 57.4492L39.4542 57.4755ZM11.9037 60.1006V58.3942L12.8881 60.1006H11.9037ZM13.1375 59.6149L12.0875 57.7905L13.1375 57.7117V59.6149ZM13.4394 57.6461L14.6863 57.0817L13.4263 59.5493L13.4394 57.6461ZM15.067 60.1137H13.6888L15.067 57.4098V60.1137ZM15.3688 60.1137L15.382 57.2261L17.1408 60.1137H15.3688ZM17.3639 59.6149L15.5395 56.6223L17.377 55.2047L17.3639 59.6149ZM18.204 55.2572L19.9628 56.6748L18.1908 59.5493L18.204 55.2572ZM20.1465 60.1268L18.3746 60.1137L20.1465 57.2392V60.1268ZM20.4353 60.1268L20.4484 57.4098L21.8135 60.1268H20.4353ZM22.0629 59.5755L20.8291 57.1211L22.076 57.6723L22.0629 59.5755ZM22.3779 57.738L23.4279 57.8298L22.3647 59.6412L22.3779 57.738ZM23.6117 60.1399H22.6273L23.6117 58.4467V60.1399ZM23.9004 60.1399V58.4074L25.0555 60.1399H23.9004ZM25.3574 59.7724L24.0842 57.8692H25.3574V59.7724ZM25.8561 57.8955H27.1293L25.8561 59.7987V57.8955ZM27.2999 60.1793H26.1449L27.3131 58.4467L27.2999 60.1793ZM27.6018 60.1793V58.473L28.5862 60.1793H27.6018ZM28.8487 59.6937L27.7987 57.8823L28.8487 57.8036V59.6937ZM29.1506 57.738L30.3976 57.1736L29.1375 59.6412L29.1506 57.738ZM30.7651 60.1924H29.3869L30.7651 57.4886V60.1924ZM31.067 60.1924L31.0801 57.3048L32.8389 60.1924H31.067ZM33.062 59.7068L31.2507 56.7273L33.0752 55.3097L33.062 59.7068ZM33.9021 55.336L35.6609 56.7404L33.8889 59.6149L33.9021 55.336ZM35.8315 60.2187L34.0596 60.2056L35.8315 57.3311V60.2187ZM36.1334 60.2187L36.1465 57.5017L37.5116 60.2187H36.1334ZM37.761 59.6674L36.5272 57.1998L37.7741 57.7642L37.761 59.6674ZM38.0629 57.8298L39.1129 57.9348L38.0629 59.7462V57.8298ZM39.3098 60.2318H38.3254L39.3229 58.5255L39.3098 60.2318Z" fill="#434343"/>
</svg>
